<svg width="19" height="26" viewBox="0 0 19 26" fill="none" xmlns="http://www.w3.org/2000/svg">
<path d="M16.4077 3.625H12.5015C12.5015 1.90137 11.1001 0.5 9.37646 0.5C7.65283 0.5 6.25146 1.90137 6.25146 3.625H2.34521C1.05127 3.625 0.00146484 4.6748 0.00146484 5.96875V23.1562C0.00146484 24.4502 1.05127 25.5 2.34521 25.5H16.4077C17.7017 25.5 18.7515 24.4502 18.7515 23.1562V5.96875C18.7515 4.6748 17.7017 3.625 16.4077 3.625ZM9.37646 2.45312C10.0259 2.45312 10.5483 2.97559 10.5483 3.625C10.5483 4.27441 10.0259 4.79688 9.37646 4.79688C8.72705 4.79688 8.20459 4.27441 8.20459 3.625C8.20459 2.97559 8.72705 2.45312 9.37646 2.45312ZM14.064 17.2969C14.064 17.5117 13.8882 17.6875 13.6733 17.6875H10.939V20.4219C10.939 20.6367 10.7632 20.8125 10.5483 20.8125H8.20459C7.98975 20.8125 7.81396 20.6367 7.81396 20.4219V17.6875H5.07959C4.86475 17.6875 4.68896 17.5117 4.68896 17.2969V14.9531C4.68896 14.7383 4.86475 14.5625 5.07959 14.5625H7.81396V11.8281C7.81396 11.6133 7.98975 11.4375 8.20459 11.4375H10.5483C10.7632 11.4375 10.939 11.6133 10.939 11.8281V14.5625H13.6733C13.8882 14.5625 14.064 14.7383 14.064 14.9531V17.2969ZM14.064 7.92188C14.064 8.13672 13.8882 8.3125 13.6733 8.3125H5.07959C4.86475 8.3125 4.68896 8.13672 4.68896 7.92188V7.14062C4.68896 6.92578 4.86475 6.75 5.07959 6.75H13.6733C13.8882 6.75 14.064 6.92578 14.064 7.14062V7.92188Z" fill="#FAB74C"/>
</svg>
