<svg width="25" height="21" viewBox="0 0 25 21" fill="none" xmlns="http://www.w3.org/2000/svg">
<path d="M1.87646 0.5C0.84248 0.5 0.00146484 1.34102 0.00146484 2.375V4.875C0.00146484 5.22031 0.281152 5.5 0.626465 5.5H3.75146V2.375C3.75146 1.34102 2.91045 0.5 1.87646 0.5ZM10.0015 16.616V14.25H21.2515V4.25C21.2515 2.18203 19.5694 0.5 17.5015 0.5H4.36045C4.75693 1.02383 5.00146 1.66875 5.00146 2.375V16.75C5.00146 18.2684 6.35498 19.4707 7.92139 19.2156C9.15068 19.0156 10.0015 17.8617 10.0015 16.616ZM11.2515 15.5V16.75C11.2515 18.8176 9.56943 20.5 7.50146 20.5H20.6265C23.0429 20.5 25.0015 18.5414 25.0015 16.125C25.0015 15.7797 24.7218 15.5 24.3765 15.5H11.2515Z" fill="#67E613"/>
</svg>
