<svg width="25" height="36" viewBox="0 0 25 36" fill="none" xmlns="http://www.w3.org/2000/svg">
<path d="M14.5833 9.5625V0H1.5625C0.696615 0 0 0.752344 0 1.6875V34.3125C0 35.2477 0.696615 36 1.5625 36H23.4375C24.3034 36 25 35.2477 25 34.3125V11.25H16.1458C15.2865 11.25 14.5833 10.4906 14.5833 9.5625ZM18.8268 24.7507H14.5833V30.3757C14.5833 30.9973 14.1172 31.5007 13.5417 31.5007H11.4583C10.8828 31.5007 10.4167 30.9973 10.4167 30.3757V24.7507H6.17318C5.24349 24.7507 4.7793 23.535 5.43945 22.827L11.7168 16.098C12.1497 15.6333 12.849 15.6333 13.2819 16.098L19.5592 22.827C20.2201 23.535 19.7565 24.7507 18.8268 24.7507ZM24.5443 7.38281L18.1706 0.492188C17.8776 0.175781 17.4805 0 17.0638 0H16.6667V9H25V8.57109C25 8.12813 24.8372 7.69922 24.5443 7.38281Z" fill="white"/>
</svg>
