<svg width="67" height="63" viewBox="0 0 67 63" fill="none" xmlns="http://www.w3.org/2000/svg">
<path d="M32.6125 16.3491L11.1667 37.703V60.75C11.1667 61.3468 11.3628 61.9191 11.7118 62.341C12.0608 62.763 12.5342 63 13.0278 63L26.0626 62.9593C26.5546 62.9563 27.0255 62.7179 27.3726 62.2963C27.7196 61.8747 27.9144 61.3041 27.9144 60.7093V47.25C27.9144 46.6533 28.1105 46.081 28.4595 45.6591C28.8085 45.2371 29.2819 45 29.7755 45H37.2199C37.7135 45 38.1869 45.2371 38.5359 45.6591C38.885 46.081 39.081 46.6533 39.081 47.25V60.6994C39.0803 60.9955 39.1278 61.2888 39.221 61.5626C39.3142 61.8364 39.4512 62.0853 39.6241 62.295C39.797 62.5046 40.0024 62.671 40.2286 62.7845C40.4548 62.898 40.6973 62.9565 40.9422 62.9565L53.9723 63C54.4659 63 54.9392 62.763 55.2883 62.341C55.6373 61.9191 55.8334 61.3468 55.8334 60.75V37.6875L34.3922 16.3491C34.1401 16.1035 33.8261 15.9695 33.5024 15.9695C33.1786 15.9695 32.8646 16.1035 32.6125 16.3491ZM66.4882 30.863L56.7639 21.1725V1.69458C56.7639 1.24703 56.6169 0.817805 56.3551 0.501338C56.0933 0.18487 55.7383 0.00708008 55.3681 0.00708008H48.8542C48.484 0.00708008 48.129 0.18487 47.8672 0.501338C47.6054 0.817805 47.4584 1.24703 47.4584 1.69458V11.9054L37.0443 1.54692C36.0449 0.552676 34.7908 0.0090676 33.4965 0.0090676C32.2023 0.0090676 30.9482 0.552676 29.9488 1.54692L0.504861 30.863C0.363518 31.0043 0.246579 31.1778 0.160726 31.3737C0.0748733 31.5696 0.0217884 31.784 0.00450498 32.0047C-0.0127785 32.2254 0.00607821 32.448 0.0599976 32.6599C0.113917 32.8718 0.201842 33.0688 0.31875 33.2396L3.2849 37.599C3.40148 37.7703 3.54489 37.9123 3.7069 38.0166C3.86891 38.1209 4.04635 38.1855 4.22905 38.2068C4.41175 38.2281 4.59614 38.2056 4.77164 38.1406C4.94715 38.0757 5.11034 37.9695 5.25186 37.8282L32.6125 10.5835C32.8646 10.3379 33.1786 10.2039 33.5024 10.2039C33.8261 10.2039 34.1401 10.3379 34.3922 10.5835L61.754 37.8282C61.8953 37.9695 62.0582 38.0758 62.2335 38.141C62.4088 38.2062 62.5929 38.229 62.7755 38.2081C62.958 38.1872 63.1354 38.123 63.2974 38.0192C63.4595 37.9154 63.603 37.7741 63.7198 37.6032L66.686 33.2438C66.8027 33.072 66.8903 32.874 66.9436 32.6612C66.9969 32.4484 67.0148 32.225 66.9965 32.0037C66.9781 31.7825 66.9237 31.5678 66.8365 31.372C66.7493 31.1763 66.6309 31.0033 66.4882 30.863Z" fill="black"/>
</svg>
