<svg width="26" height="24" viewBox="0 0 26 24" fill="none" xmlns="http://www.w3.org/2000/svg">
<path d="M15.4383 8.99912V10.499C15.4383 10.8083 15.164 11.0614 14.8288 11.0614H11.985V13.6862C11.985 13.9955 11.7107 14.2486 11.3756 14.2486H9.75048C9.4153 14.2486 9.14107 13.9955 9.14107 13.6862V11.0614H6.29718C5.96201 11.0614 5.68778 10.8083 5.68778 10.499V8.99912C5.68778 8.68978 5.96201 8.43668 6.29718 8.43668H9.14107V5.81193C9.14107 5.50259 9.4153 5.24949 9.75048 5.24949H11.3756C11.7107 5.24949 11.985 5.50259 11.985 5.81193V8.43668H14.8288C15.164 8.43668 15.4383 8.68978 15.4383 8.99912ZM25.6458 22.3431L24.2086 23.6696C23.7312 24.1101 22.9593 24.1101 22.487 23.6696L17.4188 18.9966C17.1903 18.7857 17.0633 18.4998 17.0633 18.1998V17.4358C15.2707 18.7294 13.0159 19.4981 10.563 19.4981C4.72796 19.4981 0 15.1345 0 9.74905C0 4.36364 4.72796 0 10.563 0C16.3981 0 21.126 4.36364 21.126 9.74905C21.126 12.0129 20.2932 14.0939 18.8915 15.7485H19.7193C20.0443 15.7485 20.3541 15.8656 20.5826 16.0766L25.6458 20.7495C26.1181 21.1901 26.1181 21.9025 25.6458 22.3431ZM17.4696 9.74905C17.4696 6.22439 14.382 3.37467 10.563 3.37467C6.74408 3.37467 3.65643 6.22439 3.65643 9.74905C3.65643 13.2737 6.74408 16.1234 10.563 16.1234C14.382 16.1234 17.4696 13.2737 17.4696 9.74905Z" fill="black"/>
</svg>
