<svg width="37" height="41" viewBox="0 0 37 41" fill="none" xmlns="http://www.w3.org/2000/svg">
<g filter="url(#filter0_d_436_214)">
<path d="M18.5 33C20.7863 33 22.6409 31.1534 22.6409 28.875H14.3591C14.3591 31.1534 16.2137 33 18.5 33ZM32.4426 23.3507C31.192 22.0127 28.8519 19.9998 28.8519 13.4062C28.8519 8.39824 25.3253 4.38926 20.5701 3.4057V2.0625C20.5701 0.923613 19.6432 0 18.5 0C17.3568 0 16.4299 0.923613 16.4299 2.0625V3.4057C11.6747 4.38926 8.14807 8.39824 8.14807 13.4062C8.14807 19.9998 5.80801 22.0127 4.55739 23.3507C4.169 23.7664 3.99681 24.2634 4.00004 24.75C4.00717 25.807 4.84027 26.8125 6.07794 26.8125H30.9221C32.1597 26.8125 32.9935 25.807 33 24.75C33.0032 24.2634 32.831 23.7658 32.4426 23.3507Z" fill="#FAB74C"/>
</g>
<defs>
<filter id="filter0_d_436_214" x="0" y="0" width="37" height="41" filterUnits="userSpaceOnUse" color-interpolation-filters="sRGB">
<feFlood flood-opacity="0" result="BackgroundImageFix"/>
<feColorMatrix in="SourceAlpha" type="matrix" values="0 0 0 0 0 0 0 0 0 0 0 0 0 0 0 0 0 0 127 0" result="hardAlpha"/>
<feOffset dy="4"/>
<feGaussianBlur stdDeviation="2"/>
<feComposite in2="hardAlpha" operator="out"/>
<feColorMatrix type="matrix" values="0 0 0 0 0 0 0 0 0 0 0 0 0 0 0 0 0 0 0.25 0"/>
<feBlend mode="normal" in2="BackgroundImageFix" result="effect1_dropShadow_436_214"/>
<feBlend mode="normal" in="SourceGraphic" in2="effect1_dropShadow_436_214" result="shape"/>
</filter>
</defs>
</svg>
