<svg width="32" height="28" viewBox="0 0 32 28" fill="none" xmlns="http://www.w3.org/2000/svg">
<path d="M7.67857 2.38776H25.3214C25.6962 2.38776 26 2.15021 26 1.85714V0.530612C26 0.237548 25.6962 0 25.3214 0H7.67857C7.30379 0 7 0.237548 7 0.530612V1.85714C7 2.15021 7.30379 2.38776 7.67857 2.38776ZM7.67857 7.69388H25.3214C25.6962 7.69388 26 7.45633 26 7.16327V5.83673C26 5.54367 25.6962 5.30612 25.3214 5.30612H7.67857C7.30379 5.30612 7 5.54367 7 5.83673V7.16327C7 7.45633 7.30379 7.69388 7.67857 7.69388ZM7.67857 13H25.3214C25.6962 13 26 12.7625 26 12.4694V11.1429C26 10.8498 25.6962 10.6122 25.3214 10.6122H7.67857C7.30379 10.6122 7 10.8498 7 11.1429V12.4694C7 12.7625 7.30379 13 7.67857 13Z" fill="#585656"/>
<path d="M3.28294 24.1065C2.75027 24.1065 2.28862 23.9893 1.89799 23.755C1.50737 23.5206 1.20434 23.1927 0.988903 22.7713C0.775835 22.3499 0.6693 21.8575 0.6693 21.294C0.6693 20.7306 0.775835 20.237 0.988903 19.8132C1.20434 19.3894 1.50737 19.0604 1.89799 18.826C2.28862 18.5916 2.75027 18.4744 3.28294 18.4744C3.81561 18.4744 4.27725 18.5916 4.66788 18.826C5.05851 19.0604 5.36035 19.3894 5.57342 19.8132C5.78886 20.237 5.89657 20.7306 5.89657 21.294C5.89657 21.8575 5.78886 22.3499 5.57342 22.7713C5.36035 23.1927 5.05851 23.5206 4.66788 23.755C4.27725 23.9893 3.81561 24.1065 3.28294 24.1065ZM3.29004 23.0767C3.57886 23.0767 3.82034 22.9974 4.01447 22.8388C4.2086 22.6778 4.35301 22.4624 4.44771 22.1925C4.54477 21.9226 4.59331 21.6219 4.59331 21.2905C4.59331 20.9567 4.54477 20.6548 4.44771 20.3849C4.35301 20.1127 4.2086 19.8961 4.01447 19.7351C3.82034 19.5741 3.57886 19.4936 3.29004 19.4936C2.99411 19.4936 2.7479 19.5741 2.5514 19.7351C2.35727 19.8961 2.21168 20.1127 2.11461 20.3849C2.01992 20.6548 1.97257 20.9567 1.97257 21.2905C1.97257 21.6219 2.01992 21.9226 2.11461 22.1925C2.21168 22.4624 2.35727 22.6778 2.5514 22.8388C2.7479 22.9974 2.99411 23.0767 3.29004 23.0767ZM9.71138 18.5455V19.5398H6.57573V18.5455H9.71138ZM7.34988 17.2386H8.63539V22.3594C8.63539 22.5322 8.66143 22.6648 8.71351 22.7571C8.76796 22.8471 8.83899 22.9086 8.92658 22.9418C9.01418 22.9749 9.11124 22.9915 9.21777 22.9915C9.29827 22.9915 9.37166 22.9856 9.43794 22.9737C9.5066 22.9619 9.55868 22.9512 9.59419 22.9418L9.81081 23.9467C9.74216 23.9704 9.64391 23.9964 9.51607 24.0249C9.3906 24.0533 9.23671 24.0698 9.05442 24.0746C8.73245 24.084 8.44244 24.0355 8.18439 23.929C7.92634 23.8201 7.72156 23.652 7.57005 23.4247C7.4209 23.1974 7.34751 22.9134 7.34988 22.5724V17.2386ZM12.1892 20.804V24H10.9037V16.7273H12.1608V19.4723H12.2247C12.3525 19.1645 12.5502 18.9219 12.8177 18.7443C13.0876 18.5644 13.4309 18.4744 13.8476 18.4744C14.2264 18.4744 14.5566 18.5537 14.8383 18.7124C15.1201 18.871 15.3379 19.103 15.4917 19.4084C15.648 19.7138 15.7261 20.0866 15.7261 20.527V24H14.4406V20.7259C14.4406 20.3589 14.3459 20.0736 14.1565 19.87C13.9695 19.6641 13.7067 19.5611 13.3682 19.5611C13.1409 19.5611 12.9373 19.6108 12.7574 19.7102C12.5798 19.8073 12.4401 19.9482 12.3383 20.1328C12.2389 20.3175 12.1892 20.5412 12.1892 20.804ZM19.4513 24.1065C18.9044 24.1065 18.4321 23.9929 18.0344 23.7656C17.639 23.536 17.3348 23.2116 17.1217 22.7926C16.9086 22.3712 16.8021 21.8752 16.8021 21.3047C16.8021 20.7436 16.9086 20.2512 17.1217 19.8274C17.3372 19.4013 17.6378 19.0698 18.0237 18.8331C18.4096 18.594 18.863 18.4744 19.3838 18.4744C19.72 18.4744 20.0372 18.5289 20.3355 18.6378C20.6362 18.7443 20.9013 18.91 21.1309 19.1349C21.363 19.3598 21.5452 19.6463 21.6778 19.9943C21.8104 20.34 21.8767 20.7519 21.8767 21.2301V21.6243H17.4058V20.7578H20.6444C20.6421 20.5116 20.5888 20.2926 20.4846 20.1009C20.3805 19.9067 20.2349 19.754 20.0479 19.6428C19.8632 19.5315 19.6478 19.4759 19.4015 19.4759C19.1388 19.4759 18.9079 19.5398 18.7091 19.6676C18.5102 19.7931 18.3551 19.9588 18.2439 20.1648C18.135 20.3684 18.0793 20.5921 18.077 20.8359V21.5923C18.077 21.9096 18.135 22.1818 18.251 22.4091C18.367 22.634 18.5291 22.8068 18.7375 22.9276C18.9458 23.0459 19.1897 23.1051 19.469 23.1051C19.656 23.1051 19.8253 23.0791 19.9768 23.027C20.1283 22.9725 20.2597 22.8932 20.371 22.7891C20.4823 22.6849 20.5663 22.5559 20.6231 22.402L21.8234 22.5369C21.7477 22.8542 21.6032 23.1312 21.3902 23.3679C21.1795 23.6023 20.9096 23.7846 20.5805 23.9148C20.2515 24.0426 19.875 24.1065 19.4513 24.1065ZM22.9642 24V18.5455H24.2107V19.4545H24.2675C24.3669 19.1397 24.5374 18.897 24.7789 18.7266C25.0227 18.5537 25.3009 18.4673 25.6134 18.4673C25.6844 18.4673 25.7637 18.4709 25.8513 18.478C25.9413 18.4827 26.0158 18.491 26.075 18.5028V19.6854C26.0206 19.6664 25.9342 19.6499 25.8158 19.6357C25.6998 19.6191 25.5873 19.6108 25.4784 19.6108C25.2441 19.6108 25.0334 19.6617 24.8463 19.7635C24.6617 19.8629 24.5161 20.0014 24.4095 20.179C24.303 20.3565 24.2497 20.5613 24.2497 20.7933V24H22.9642ZM31.2401 19.9872L30.0683 20.1151C30.0351 19.9967 29.9771 19.8854 29.8943 19.7812C29.8138 19.6771 29.7049 19.593 29.5676 19.5291C29.4302 19.4652 29.2622 19.4332 29.0633 19.4332C28.7958 19.4332 28.5709 19.4912 28.3886 19.6072C28.2087 19.7232 28.1199 19.8736 28.1222 20.0582C28.1199 20.2169 28.1779 20.3459 28.2963 20.4453C28.417 20.5447 28.6159 20.6264 28.8928 20.6903L29.8232 20.8892C30.3393 21.0005 30.7229 21.1768 30.9738 21.4183C31.2271 21.6598 31.355 21.9759 31.3573 22.3665C31.355 22.7098 31.2544 23.0128 31.0555 23.2756C30.859 23.536 30.5856 23.7396 30.2352 23.8864C29.8848 24.0331 29.4823 24.1065 29.0278 24.1065C28.3602 24.1065 27.8228 23.9669 27.4156 23.6875C27.0084 23.4058 26.7657 23.014 26.6876 22.5121L27.9411 22.3913C27.998 22.6375 28.1187 22.8234 28.3034 22.9489C28.488 23.0743 28.7283 23.1371 29.0242 23.1371C29.3296 23.1371 29.5747 23.0743 29.7593 22.9489C29.9463 22.8234 30.0399 22.6683 30.0399 22.4837C30.0399 22.3274 29.9795 22.1984 29.8588 22.0966C29.7404 21.9948 29.5557 21.9167 29.3048 21.8622L28.3744 21.6669C27.8512 21.558 27.4641 21.3745 27.2132 21.1165C26.9622 20.8561 26.8379 20.527 26.8403 20.1293C26.8379 19.7931 26.9291 19.5019 27.1137 19.2557C27.3008 19.0071 27.56 18.8153 27.8914 18.6804C28.2252 18.5431 28.6099 18.4744 29.0455 18.4744C29.6847 18.4744 30.1878 18.6106 30.5548 18.8828C30.9241 19.1551 31.1526 19.5232 31.2401 19.9872Z" fill="#585656"/>
</svg>
