<svg width="21" height="24" viewBox="0 0 21 24" fill="none" xmlns="http://www.w3.org/2000/svg">
<path d="M0.563965 9.125H20.439C20.7483 9.125 21.0015 9.36758 21.0015 9.66406V21.3438C21.0015 22.5342 19.9937 23.5 18.7515 23.5H2.25146C1.00928 23.5 0.00146484 22.5342 0.00146484 21.3438V9.66406C0.00146484 9.36758 0.25459 9.125 0.563965 9.125ZM21.0015 7.14844V5.53125C21.0015 4.34082 19.9937 3.375 18.7515 3.375H16.5015V1.03906C16.5015 0.742578 16.2483 0.5 15.939 0.5H14.064C13.7546 0.5 13.5015 0.742578 13.5015 1.03906V3.375H7.50146V1.03906C7.50146 0.742578 7.24834 0.5 6.93896 0.5H5.06396C4.75459 0.5 4.50146 0.742578 4.50146 1.03906V3.375H2.25146C1.00928 3.375 0.00146484 4.34082 0.00146484 5.53125V7.14844C0.00146484 7.44492 0.25459 7.6875 0.563965 7.6875H20.439C20.7483 7.6875 21.0015 7.44492 21.0015 7.14844Z" fill="#4A18FF"/>
</svg>
